<svg xmlns="http://www.w3.org/2000/svg" width="87.008" height="127.382" viewBox="0 0 87.008 127.382">
  <g id="_002-click" data-name="002-click" transform="translate(0)">
    <path id="Path_34" data-name="Path 34" d="M47.76,20.3a10.229,10.229,0,0,0-6.266.874,6.544,6.544,0,0,0-7.919.764L26.62,28.453v-.567A10.612,10.612,0,0,0,16.007,17.273,6.367,6.367,0,0,0,9.64,23.64V44.429l-5.2,5.635A8.438,8.438,0,0,0,2.2,55.931a139.579,139.579,0,0,0,1.634,22.1,2.039,2.039,0,0,0,.2.478L.568,88.256a8.394,8.394,0,0,0,3.213,9.836l1.213.824a8.508,8.508,0,0,0,3.217,9.764l34.366,23.56a2.123,2.123,0,0,1,.924,1.753,6.367,6.367,0,0,0,6.367,6.368H80.714a6.321,6.321,0,0,0,4.971-2.4,6.386,6.386,0,0,0,1.206-5.481l-3.1-11.461a50.472,50.472,0,0,1-.951-15.259C84.59,83.581,69.72,67.557,65.948,64.772c-6.938-5.115-12.113-10.447-14.2-14.63-3.131-6.278-1.02-10.572,1.019-14.724,1.711-3.483,3.481-7.083.97-10.859A9.339,9.339,0,0,0,47.76,20.3ZM16.007,21.518a6.367,6.367,0,0,1,6.368,6.367v4.542l-8.49,7.947V23.64a2.123,2.123,0,0,1,2.122-2.122ZM6.444,55.873a4.213,4.213,0,0,1,1.122-2.931l5.6-6.085a1.771,1.771,0,0,0,.145-.138L25.776,35.056a2.111,2.111,0,0,0,.328-.31L36.53,24.982a2.141,2.141,0,0,1,2.986,0l.145-.145a1.8,1.8,0,0,0,.165.168l-.134.172a6.367,6.367,0,0,1-.144,8.787L31.2,41.979,19.446,52.566a4.129,4.129,0,0,0-1.114,3.014A10.61,10.61,0,0,0,9.71,62.527L7.046,70.02C6.62,64.8,6.484,58.9,6.444,55.873Zm16.114-.4,6.134-5.519a34.333,34.333,0,0,0,.2,5.519ZM4.561,89.7l9.153-25.754a6.391,6.391,0,0,1,6.042-4.226H37.969a2.147,2.147,0,0,1,1.228.4L50.184,67.9a1.619,1.619,0,0,1,.7,1.307,1.639,1.639,0,0,1-.224.849c-.075.123-.172.246-.261.367l-3.447-2.466a10.534,10.534,0,0,0-6.155-1.978H24.09A10.612,10.612,0,0,0,14.1,73.065L6.458,94.779l-.276-.187A4.161,4.161,0,0,1,4.561,89.7Zm44.4-56.13c-2.144,4.36-5.078,10.332-1.007,18.492,3.254,6.522,11.095,12.919,15.48,16.147,2.819,2.074,16.784,16.889,15.18,37.242a54.761,54.761,0,0,0,1.061,16.619l3.1,11.462a2.122,2.122,0,0,1-2.063,2.6H49.857a2.123,2.123,0,0,1-2.122-2.123,6.369,6.369,0,0,0-2.759-5.255L10.612,105.2a4.257,4.257,0,0,1-1.6-4.92l9.09-25.81a6.369,6.369,0,0,1,5.986-4.245h16.7a6.32,6.32,0,0,1,3.691,1.186l9.8,7.015a1.648,1.648,0,0,1,.446,2.175,6.334,6.334,0,0,1-8.962,2.021L41.52,79.786a6.307,6.307,0,0,0-3.532-1.075H31.451a6.311,6.311,0,0,0-6.053,4.4c-.125.4-.3.889-.505,1.443-1.528,4.224-5.094,14.107,3,17.352a2.123,2.123,0,1,0,1.58-3.938c-3.56-1.428-2.809-5.82-.584-11.968.224-.62.425-1.165.561-1.607a2.084,2.084,0,0,1,2.005-1.437h6.535a2.1,2.1,0,0,1,1.17.357L43.4,86.149a10.586,10.586,0,0,0,14.966-3.372,5.917,5.917,0,0,0-1.624-7.807l-2.9-2.087c.154-.212.323-.424.454-.636a5.85,5.85,0,0,0-1.651-7.791l-10.984-7.8a6.416,6.416,0,0,0-3.691-1.179h-4.8a30.058,30.058,0,0,1,.315-9.878L42.528,37A10.614,10.614,0,0,0,44.4,24.583a4.919,4.919,0,0,1,5.805,2.356c1.052,1.584.462,3.159-1.246,6.635Zm0,0" transform="translate(-0.063 -12.977)" fill="#f38f5d"/>
    <path id="Path_35" data-name="Path 35" d="M151.935,358.276a2.126,2.126,0,0,0-1.346,4.033c4.9,1.642,17.617,7.533,17.617,14.966a2.122,2.122,0,0,0,4.245,0c-.007-12.016-19.678-18.725-20.516-19Zm0,0" transform="translate(-112.058 -269.08)" fill="#f38f5d"/>
    <path id="Path_36" data-name="Path 36" d="M206.515,324.843a2.123,2.123,0,1,0-3.379,2.57c3.238,4.245,8.626,9.326,15.9,9.326a2.122,2.122,0,1,0,0-4.245C213.5,332.495,209.178,328.332,206.515,324.843Zm0,0" transform="translate(-152.3 -243.415)" fill="#f38f5d"/>
    <path id="Path_37" data-name="Path 37" d="M215.84.712l-2.023,2.123a2.122,2.122,0,1,0,3.073,2.925l2.023-2.123A2.122,2.122,0,1,0,215.84.712Zm0,0" transform="translate(-160.173 -0.001)" fill="#f38f5d"/>
    <path id="Path_38" data-name="Path 38" d="M243.286,36.482a2.124,2.124,0,0,0-2.618-1.471l-2.759.777a2.125,2.125,0,1,0,1.152,4.09l2.759-.775a2.122,2.122,0,0,0,1.466-2.621Zm0,0" transform="translate(-177.572 -26.244)" fill="#f38f5d"/>
    <path id="Path_39" data-name="Path 39" d="M232.341,75.631a2.123,2.123,0,0,0-1.148,4.088l2.759.777a2.123,2.123,0,1,0,1.148-4.089Zm0,0" transform="translate(-172.54 -56.76)" fill="#f38f5d"/>
  </g>
</svg>
