<svg xmlns="http://www.w3.org/2000/svg" width="75.614" height="123.371" viewBox="0 0 75.614 123.371">
  <g id="_003-application" data-name="003-application" transform="translate(0)">
    <path id="Path_40" data-name="Path 40" d="M63.675,113.421a5.977,5.977,0,0,1-5.97,5.97h-1.99V117.4a5.977,5.977,0,0,0-5.97-5.97H17.909a5.977,5.977,0,0,0-5.97,5.97v1.99H9.949a5.977,5.977,0,0,1-5.97-5.97V9.949A5.977,5.977,0,0,1,7.614,4.458L18.492,15.336a1.981,1.981,0,0,0,1.407.583H47.756a1.981,1.981,0,0,0,1.407-.583L60.041,4.458a5.977,5.977,0,0,1,3.634,5.492V33.827h3.98V9.949A9.961,9.961,0,0,0,57.706,0H9.949A9.961,9.961,0,0,0,0,9.949V113.421a9.961,9.961,0,0,0,9.949,9.949H57.706a9.961,9.961,0,0,0,9.949-9.949V85.564h-3.98ZM46.933,11.939H20.723L12.763,3.98H54.892ZM15.919,117.4a1.991,1.991,0,0,1,1.99-1.99H49.746a1.991,1.991,0,0,1,1.99,1.99v1.99H15.919Zm0,0" transform="translate(0)" fill="#f38f5d"/>
    <path id="Path_41" data-name="Path 41" d="M133.726,123.937a31.429,31.429,0,0,1-22.372-9.267l-2.089-2.089a1.987,1.987,0,0,0-2.814,0l-2.089,2.089a31.429,31.429,0,0,1-22.372,9.267,1.987,1.987,0,0,0-1.99,1.99v2.364A62.046,62.046,0,0,0,106.726,179.3a1.984,1.984,0,0,0,2.264,0,62.046,62.046,0,0,0,26.726-51.007v-2.364a1.987,1.987,0,0,0-1.99-1.99Zm-1.99,4.354a58.071,58.071,0,0,1-23.878,46.931A58.071,58.071,0,0,1,83.98,128.291v-.429a35.356,35.356,0,0,0,23.2-10.38l.682-.68.682.682a35.361,35.361,0,0,0,23.2,10.38Zm0,0" transform="translate(-60.101 -84.14)" fill="#f38f5d"/>
    <path id="Path_42" data-name="Path 42" d="M147.98,175.959v3.98h-1.99a1.987,1.987,0,0,0-1.99,1.99v15.919a1.987,1.987,0,0,0,1.99,1.99h19.9a1.987,1.987,0,0,0,1.99-1.99V181.929a1.987,1.987,0,0,0-1.99-1.99H163.9v-3.98a7.959,7.959,0,0,0-15.919,0Zm15.919,19.9H147.98V183.919H163.9Zm-3.98-19.9v3.98h-7.959v-3.98a3.98,3.98,0,1,1,7.959,0Zm0,0" transform="translate(-108.183 -126.213)" fill="#f38f5d"/>
    <path id="Path_43" data-name="Path 43" d="M184,248h3.98v3.98H184Zm0,0" transform="translate(-138.233 -186.315)" fill="#f38f5d"/>
  </g>
</svg>
