<svg id="_004-cup" data-name="004-cup" xmlns="http://www.w3.org/2000/svg" width="123.518" height="119.46" viewBox="0 0 123.518 119.46">
  <g id="Group_9" data-name="Group 9" transform="translate(33.586 89.502)">
    <path id="Path_44" data-name="Path 44" d="M139.618,387.149a12.637,12.637,0,0,1-2.871-3.272l3.186-1.943a8.917,8.917,0,0,0,2.026,2.308Zm-4.46-7.333a12.684,12.684,0,0,1-.106-4.354l3.69.552a8.949,8.949,0,0,0,.074,3.069Zm4.556-6.709-3.28-1.779a12.547,12.547,0,0,1,2.691-3.4l2.482,2.786A8.83,8.83,0,0,0,139.714,373.107Z" transform="translate(-134.913 -367.932)" fill="#f38f5d"/>
  </g>
  <g id="Group_10" data-name="Group 10" transform="translate(0 0)">
    <path id="Path_45" data-name="Path 45" d="M124.694,43.119l5.208-7.587L89.941,8.1l-5.208,7.587-2.962-2.033L31.285,74.012l-3.7-2.542-2.111,3.076,19.48,13.372a20.538,20.538,0,0,0-4.174,35.909H8.538v3.731h82.05v-3.731H64.35a20.537,20.537,0,0,0,8.759-16.58l17.957,12.327,2.111-3.076-3.728-2.559,38.182-68.806ZM69.384,107.007A16.82,16.82,0,1,1,48.86,90.6L69.2,104.567a16.842,16.842,0,0,1,.181,2.441ZM49.6,57.934,97.872,91.073,95.805,94.8,46.865,61.2ZM37.261,72.683l10.261,7.044,2.111-3.076-9.968-6.842,4.8-5.733,49.526,34-3.627,6.535L52.735,78.78l-2.111,3.076,37.919,26.03-2.182,3.932L34.375,76.133ZM99.69,87.8,52,55.059,82.456,18.649,111.817,38.8l2.111-3.076L87.809,17.8l3.1-4.511L124.716,36.5l-3.1,4.511L117,37.84l-2.111,3.076,7.829,5.375Z" transform="translate(-6.385 -8.099)" fill="#f38f5d"/>
    <path id="Path_46" data-name="Path 46" d="M0,0H3.731V11.162H0Z" transform="translate(7.547 72.731) rotate(-50.15)" fill="#f38f5d"/>
    <path id="Path_47" data-name="Path 47" d="M0,0H3.731V11.162H0Z" transform="translate(1.664 84.306) rotate(-70.134)" fill="#f38f5d"/>
    <path id="Path_48" data-name="Path 48" d="M0,0H11.162V3.731H0Z" transform="translate(0 93.443) rotate(-0.115)" fill="#f38f5d"/>
  </g>
</svg>
