<svg xmlns="http://www.w3.org/2000/svg" xmlns:xlink="http://www.w3.org/1999/xlink" width="645" height="301.421" viewBox="0 0 645 301.421">
  <defs>
    <linearGradient id="linear-gradient" x1="0.5" x2="0.107" y2="0.82" gradientUnits="objectBoundingBox">
      <stop offset="0" stop-color="#32c8de"/>
      <stop offset="0.216" stop-color="#32b8de"/>
      <stop offset="0.498" stop-color="#32a3de"/>
      <stop offset="0.498" stop-color="#0a8fb8"/>
      <stop offset="1" stop-color="#2449af"/>
    </linearGradient>
  </defs>
  <path id="Path_2" data-name="Path 2" d="M87.4,419.92c-32.882.052-59.142-4.454-91-30.68L-187.687,205.158l-.1.1a95.638,95.638,0,0,0-14.275-12.572,94.9,94.9,0,0,0-16.6-9.525,93.729,93.729,0,0,0-38.414-8.149,94.749,94.749,0,0,0-94.642,94.644A94.749,94.749,0,0,0-257.082,364.3a95.075,95.075,0,0,0,92.6-75.041l43.711,43.711a150.373,150.373,0,0,1-22.887,35.251A150.966,150.966,0,0,1-175.246,395.7a149.526,149.526,0,0,1-38.428,17.852,150.385,150.385,0,0,1-43.408,6.365,151.363,151.363,0,0,1-30.283-3.05,149.5,149.5,0,0,1-28.205-8.756,150.269,150.269,0,0,1-25.524-13.854,151.361,151.361,0,0,1-22.239-18.348,151.36,151.36,0,0,1-18.348-22.239,150.261,150.261,0,0,1-13.854-25.521,149.518,149.518,0,0,1-8.756-28.205,151.366,151.366,0,0,1-3.05-30.283,151.364,151.364,0,0,1,3.05-30.283,149.52,149.52,0,0,1,8.756-28.205,150.283,150.283,0,0,1,13.854-25.524,151.329,151.329,0,0,1,18.348-22.239,151.317,151.317,0,0,1,22.239-18.348,150.278,150.278,0,0,1,25.524-13.854,149.51,149.51,0,0,1,28.207-8.761,151.358,151.358,0,0,1,30.282-3.05,149.947,149.947,0,0,1,49.348,8.292A149.671,149.671,0,0,1-165.271,150.7L18.349,334.321a95.07,95.07,0,0,0,30.8,21.907A94.642,94.642,0,1,0,87.4,175.016,95.1,95.1,0,0,0-5.169,249.9l-43.688-43.688L-136.572,118.5H-57.05l41.605,41.6a150.246,150.246,0,0,1,250.051,79.274,151.728,151.728,0,0,1,0,60.566A149.448,149.448,0,0,1,212,353.675,149.936,149.936,0,0,1,87.4,419.92Z" transform="translate(407.341 -118.5)" fill="url(#linear-gradient)"/>
</svg>
