<svg xmlns="http://www.w3.org/2000/svg" width="110" height="66.35" viewBox="0 0 110 66.35">
  <g id="Logowhite" transform="translate(-589.002 -284)">
    <g id="Group_1" data-name="Group 1" transform="translate(589.002 284)">
      <path id="Path_2" data-name="Path 2" d="M-322.967,169.905a25.514,25.514,0,0,1-15.52-5.232l-31.394-31.394-.017.017a16.308,16.308,0,0,0-2.435-2.144,16.182,16.182,0,0,0-2.832-1.624,15.985,15.985,0,0,0-6.551-1.39,16.159,16.159,0,0,0-16.141,16.141,16.159,16.159,0,0,0,16.141,16.141,16.214,16.214,0,0,0,15.792-12.8l7.455,7.454a25.644,25.644,0,0,1-3.9,6.012,25.747,25.747,0,0,1-5.387,4.686,25.5,25.5,0,0,1-6.554,3.044,25.646,25.646,0,0,1-7.4,1.085,25.814,25.814,0,0,1-5.165-.52,25.5,25.5,0,0,1-4.81-1.493,25.627,25.627,0,0,1-4.353-2.363,25.813,25.813,0,0,1-3.793-3.129,25.813,25.813,0,0,1-3.129-3.793,25.624,25.624,0,0,1-2.363-4.352,25.5,25.5,0,0,1-1.493-4.81,25.814,25.814,0,0,1-.52-5.165,25.814,25.814,0,0,1,.52-5.165,25.5,25.5,0,0,1,1.493-4.81,25.628,25.628,0,0,1,2.363-4.353,25.809,25.809,0,0,1,3.129-3.793,25.807,25.807,0,0,1,3.793-3.129,25.627,25.627,0,0,1,4.353-2.363,25.5,25.5,0,0,1,4.81-1.494,25.814,25.814,0,0,1,5.164-.52,25.572,25.572,0,0,1,8.416,1.414,25.525,25.525,0,0,1,7.242,3.924l31.315,31.316a16.214,16.214,0,0,0,5.253,3.736,15.986,15.986,0,0,0,6.523,1.377,16.141,16.141,0,0,0,16.141-16.141,16.141,16.141,0,0,0-16.141-16.141,16.219,16.219,0,0,0-15.787,12.772l-7.451-7.451L-361.163,118.5H-347.6l7.1,7.1a25.645,25.645,0,0,1,7.944-5.086,25.5,25.5,0,0,1,4.637-1.377,25.881,25.881,0,0,1,10.123.041,25.486,25.486,0,0,1,9.163,3.855,25.7,25.7,0,0,1,9.284,11.275,25.5,25.5,0,0,1,1.493,4.81,25.876,25.876,0,0,1,0,10.329,25.487,25.487,0,0,1-3.855,9.163,25.7,25.7,0,0,1-11.275,9.284,25.5,25.5,0,0,1-4.81,1.493A25.817,25.817,0,0,1-322.967,169.905Z" transform="translate(407.341 -118.5)" fill="#fff"/>
    </g>
    <path id="EIGHT_BLINKS" data-name="EIGHT BLINKS" d="M10.921-42.934H6.6v-7.645h4.325v1.056H7.846v2.081h2.881V-46.4H7.846V-44h3.075Zm4.865,0v-7.645h1.25v7.645Zm9.608-4.147h2.813v3.838a8.142,8.142,0,0,1-1.326.319,9.384,9.384,0,0,1-1.373.094,3.448,3.448,0,0,1-2.677-1.028,4.138,4.138,0,0,1-.941-2.9,3.866,3.866,0,0,1,1.062-2.889,3.99,3.99,0,0,1,2.923-1.043,5.693,5.693,0,0,1,2.269.46l-.439,1.041a4.416,4.416,0,0,0-1.862-.429,2.507,2.507,0,0,0-1.935.769,2.975,2.975,0,0,0-.711,2.1,3.138,3.138,0,0,0,.641,2.131,2.322,2.322,0,0,0,1.843.729,6.058,6.058,0,0,0,1.3-.152v-1.971H25.395Zm13.891,4.147H38.03V-46.38H34.506v3.446h-1.25v-7.645h1.25v3.127H38.03v-3.127h1.255Zm7.867,0H45.9v-6.573H43.654v-1.072H49.4v1.072H47.152ZM59.78-50.579h2.269a4.307,4.307,0,0,1,2.283.46,1.611,1.611,0,0,1,.7,1.454,1.762,1.762,0,0,1-.345,1.114,1.543,1.543,0,0,1-.994.56v.052a1.973,1.973,0,0,1,1.184.6,1.811,1.811,0,0,1,.379,1.211,1.963,1.963,0,0,1-.719,1.613,3.093,3.093,0,0,1-2,.583H59.78Zm1.25,3.158h1.2a2.059,2.059,0,0,0,1.145-.248.951.951,0,0,0,.361-.845.846.846,0,0,0-.39-.779,2.433,2.433,0,0,0-1.237-.241H61.029Zm0,1.014v2.421h1.328a1.955,1.955,0,0,0,1.184-.3,1.11,1.11,0,0,0,.4-.949,1.008,1.008,0,0,0-.408-.884,2.162,2.162,0,0,0-1.239-.288Zm9.033,3.472v-7.645h1.25v6.573h3.237v1.072Zm9.017,0v-7.645h1.25v7.645Zm12.85,0H90.4l-3.76-6.092H86.6l.026.34q.073.973.073,1.778v3.974H85.561v-7.645h1.516l3.749,6.061h.031q-.01-.12-.042-.876t-.031-1.179v-4.006H91.93Zm11.067,0h-1.448l-2.4-3.462-.737.6v2.86h-1.25v-7.645h1.25v3.65q.512-.627,1.02-1.208l2.066-2.442h1.422q-2,2.353-2.871,3.352Zm8.63-2.076a1.924,1.924,0,0,1-.737,1.6,3.209,3.209,0,0,1-2.034.58,4.853,4.853,0,0,1-2.123-.4v-1.182a5.771,5.771,0,0,0,1.111.387,4.712,4.712,0,0,0,1.1.141,1.743,1.743,0,0,0,1.1-.282.921.921,0,0,0,.353-.758.95.95,0,0,0-.324-.727,4.881,4.881,0,0,0-1.339-.706,3.541,3.541,0,0,1-1.475-.967,2.047,2.047,0,0,1-.429-1.307,1.831,1.831,0,0,1,.68-1.506,2.82,2.82,0,0,1,1.825-.549,5.362,5.362,0,0,1,2.186.481l-.4,1.02a4.776,4.776,0,0,0-1.82-.429,1.4,1.4,0,0,0-.92.264.867.867,0,0,0-.314.7.983.983,0,0,0,.126.51,1.282,1.282,0,0,0,.413.4,6.988,6.988,0,0,0,1.035.5,5.665,5.665,0,0,1,1.234.654,1.923,1.923,0,0,1,.575.685A2.06,2.06,0,0,1,111.627-45.01Z" transform="translate(587.163 393.179)" fill="#fff"/>
  </g>
</svg>
