<svg xmlns="http://www.w3.org/2000/svg" width="30.033" height="24.985" viewBox="0 0 30.033 24.985">
  <g id="right-arrow" transform="translate(0 -41.346)">
    <g id="Group_2" data-name="Group 2" transform="translate(0 41.346)">
      <path id="Path_4" data-name="Path 4" d="M29.553,52.672,18.707,41.826a1.648,1.648,0,0,0-2.325,0l-.985.985a1.632,1.632,0,0,0-.48,1.162,1.664,1.664,0,0,0,.48,1.176l6.327,6.341H1.622A1.6,1.6,0,0,0,0,53.106V54.5a1.666,1.666,0,0,0,1.622,1.688H21.8l-6.4,6.377a1.628,1.628,0,0,0,0,2.308l.985.982a1.649,1.649,0,0,0,2.325,0L29.553,55a1.658,1.658,0,0,0,0-2.333Z" transform="translate(0 -41.346)" fill="#fff"/>
    </g>
  </g>
</svg>
