<svg id="XMLID_806_" xmlns="http://www.w3.org/2000/svg" width="127.348" height="122.244" viewBox="0 0 127.348 122.244">
  <g id="XMLID_386_" transform="translate(0 0)">
    <path id="XMLID_389_" d="M127.1,77.266A50.2,50.2,0,0,0,88.065,33.245v-6.32a8.457,8.457,0,0,0-2.041-16.663H68.115a8.457,8.457,0,0,0-2.041,16.663v6.337A49.943,49.943,0,0,0,41.579,46.736a50.483,50.483,0,0,0-4.223,4.793c-.062,0-.125-.009-.189-.009H19.443a2.487,2.487,0,0,0,0,4.975H33.971a49.862,49.862,0,0,0-4.413,9.56H2.487a2.487,2.487,0,0,0,0,4.975H28.152a50.573,50.573,0,0,0-1.234,9.56h-11a2.487,2.487,0,0,0,0,4.975H27a50.5,50.5,0,0,0,1.553,9.56H12.437a2.487,2.487,0,1,0,0,4.975h17.7a50.237,50.237,0,0,0,42,32.164q2.465.243,4.93.243a50.364,50.364,0,0,0,27.42-8.1,2.487,2.487,0,1,0-2.715-4.169,45.269,45.269,0,1,1,13.333-13.35,2.487,2.487,0,1,0,4.172,2.709A50.4,50.4,0,0,0,127.1,77.266ZM64.633,18.719a3.486,3.486,0,0,1,3.482-3.482H86.023a3.482,3.482,0,1,1,0,6.964H68.115A3.486,3.486,0,0,1,64.633,18.719Zm6.416,13.688V27.176H83.09V32.4A50.68,50.68,0,0,0,71.048,32.408Z" transform="translate(0 -10.262)" fill="#f38f5d"/>
    <path id="XMLID_391_" d="M438.257,425.5a2.488,2.488,0,1,0,1.759.729A2.5,2.5,0,0,0,438.257,425.5Z" transform="translate(-327.38 -322.217)" fill="#f38f5d"/>
    <path id="XMLID_394_" d="M193.457,144.609a38.585,38.585,0,1,0,38.585,38.585A38.629,38.629,0,0,0,193.457,144.609Zm0,72.2a33.611,33.611,0,1,1,33.611-33.611A33.649,33.649,0,0,1,193.457,216.805Z" transform="translate(-116.351 -111.193)" fill="#f38f5d"/>
    <path id="XMLID_397_" d="M285.944,220.14l-12.32,12.319a7.709,7.709,0,0,0-6.828,0l-5.514-5.514a2.487,2.487,0,1,0-3.518,3.518l5.514,5.514a7.729,7.729,0,1,0,13.864,0L289.1,224.019h0l.361-.361a2.487,2.487,0,1,0-3.518-3.518ZM270.21,242.145a2.754,2.754,0,1,1,2.754-2.754A2.758,2.758,0,0,1,270.21,242.145Z" transform="translate(-193.103 -167.389)" fill="#f38f5d"/>
    <path id="XMLID_398_" d="M402.447,289.86h-2.3a2.487,2.487,0,1,0,0,4.975h2.3a2.487,2.487,0,1,0,0-4.975Z" transform="translate(-298.746 -220.315)" fill="#f38f5d"/>
    <path id="XMLID_399_" d="M197.874,289.616h-2.3a2.487,2.487,0,1,0,0,4.975h2.3a2.487,2.487,0,1,0,0-4.975Z" transform="translate(-145.056 -220.132)" fill="#f38f5d"/>
    <path id="XMLID_400_" d="M302.61,190.1a2.487,2.487,0,0,0,2.487-2.487v-2.3a2.487,2.487,0,1,0-4.975,0v2.3A2.487,2.487,0,0,0,302.61,190.1Z" transform="translate(-225.473 -139.899)" fill="#f38f5d"/>
    <path id="XMLID_424_" d="M302.366,387.393a2.487,2.487,0,0,0-2.487,2.487v2.3a2.487,2.487,0,1,0,4.975,0v-2.3A2.487,2.487,0,0,0,302.366,387.393Z" transform="translate(-225.29 -293.589)" fill="#f38f5d"/>
    <path id="XMLID_425_" d="M2.487,351.44a2.487,2.487,0,1,0,1.758,4.246,2.487,2.487,0,0,0-1.758-4.246Z" transform="translate(0 -266.578)" fill="#f38f5d"/>
  </g>
</svg>
